<svg width="512" height="512" viewBox="0 0 512 512" fill="none" xmlns="http://www.w3.org/2000/svg">
<!-- Background -->
<rect width="512" height="512" rx="96" fill="#0d0f18"/>
<!-- Raindrop left -->
<path d="M78 222.5C78 232.5 70.8 240 62 240C53.2 240 46 232.5 46 222.5C46 212.5 62 186 62 186C62 186 78 212.5 78 222.5Z" fill="#6EF5E8"/>
<!-- Bars - teal group -->
<rect x="100" y="178" width="28" height="84" rx="14" fill="#6EF5E8"/>
<rect x="136" y="146" width="28" height="148" rx="14" fill="#6EF5E8"/>
<rect x="172" y="98" width="28" height="244" rx="14" fill="#6EF5E8"/>
<rect x="208" y="146" width="28" height="148" rx="14" fill="#6EF5E8"/>
<rect x="244" y="166" width="28" height="108" rx="14" fill="#6EF5E8"/>
<!-- Bars - white/light group -->
<rect x="280" y="110" width="28" height="212" rx="14" fill="#F2F2F2"/>
<rect x="316" y="76" width="28" height="280" rx="14" fill="#F2F2F2"/>
<!-- Bars - purple group -->
<rect x="352" y="34" width="28" height="380" rx="14" fill="#7C62FF"/>
<rect x="388" y="82" width="28" height="268" rx="14" fill="#7C62FF"/>
<!-- Bar bottom halves - teal deep -->
<path d="M136 220H164V270C164 277.7 157.7 284 150 284C142.3 284 136 277.7 136 270V220Z" fill="#5FDFD3"/>
<path d="M100 220H128V252C128 259.7 121.7 266 114 266C106.3 266 100 259.7 100 252V220Z" fill="#5FDFD3"/>
<path d="M172 220H200V325C200 332.7 193.7 339 186 339C178.3 339 172 332.7 172 325V220Z" fill="#5FDFD3"/>
<path d="M208 220H236V270C236 277.7 229.7 284 222 284C214.3 284 208 277.7 208 270V220Z" fill="#5FDFD3"/>
<path d="M244 220H272V252C272 259.7 265.7 266 258 266C250.3 266 244 259.7 244 252V220Z" fill="#5FDFD3"/>
<!-- Bar bottom halves - white deep -->
<path d="M280 220H308V310C308 317.7 301.7 324 294 324C286.3 324 280 317.7 280 310V220Z" fill="#D8D5D5"/>
<path d="M316 220H344V345C344 352.7 337.7 359 330 359C322.3 359 316 352.7 316 345V220Z" fill="#D8D5D5"/>
<!-- Bar bottom halves - purple deep -->
<path d="M352 220H380V390C380 397.7 373.7 404 366 404C358.3 404 352 397.7 352 390V220Z" fill="#6A53E0"/>
<path d="M388 220H416V330C416 337.7 409.7 344 402 344C394.3 344 388 337.7 388 330V220Z" fill="#6A53E0"/>
<!-- Raindrop right -->
<path d="M466 222.5C466 232.5 458.8 240 450 240C441.2 240 434 232.5 434 222.5C434 212.5 450 186 450 186C450 186 466 212.5 466 222.5Z" fill="#F2F2F2"/>
<!-- Subtle center line -->
<rect x="46" y="218" width="420" height="2" fill="white" fill-opacity="0.05"/>
</svg>
